<?xml version="1.0" standalone="no"?><!DOCTYPE svg PUBLIC "-//W3C//DTD SVG 1.1//EN" "http://www.w3.org/Graphics/SVG/1.1/DTD/svg11.dtd"><svg t="1563948525624" class="icon" viewBox="0 0 1024 1024" version="1.1" xmlns="http://www.w3.org/2000/svg" p-id="1446" xmlns:xlink="http://www.w3.org/1999/xlink" width="200" height="200"><defs><style type="text/css"></style></defs><path d="M870.902047 764.559399A436.438441 436.438441 0 0 0 949.383436 548.571011h-182.343059a569.118067 569.118067 0 0 1-36.132159 171.298613c50.906847 10.751877 97.571456 25.599707 140.066971 44.689775z m-49.370864 58.513617a654.328522 654.328522 0 0 0-122.147176-34.888744 637.944709 637.944709 0 0 1-123.975726 158.13305 437.608713 437.608713 0 0 0 246.122902-123.244306zM376.973977 705.753214a1168.297505 1168.297505 0 0 1 131.875065-7.021634c52.369687 0 101.740552 2.925681 148.185735 8.777043a492.830939 492.830939 0 0 0 36.57101-158.937612H331.333356c5.339368 52.442829 20.479766 104.885658 45.640621 157.255345z m39.350408 69.704346c27.13569 41.690952 60.707878 83.528188 100.643421 125.292283a585.282454 585.282454 0 0 0 104.154238-123.610016 1153.303391 1153.303391 0 0 0-112.273002-5.266226c-32.475057 0-63.267848 1.243414-92.524657 3.583959z m-261.555868-8.557616a588.939555 588.939555 0 0 1 147.161747-49.297722A534.375607 534.375607 0 0 1 257.825625 548.571011H74.678004a436.438441 436.438441 0 0 0 80.090513 218.328933z m49.151438 57.635913a437.462429 437.462429 0 0 0 257.021063 123.39059 891.016103 891.016103 0 0 1-124.341436-162.521572 558.805042 558.805042 0 0 0-132.679627 39.130982zM156.011931 255.271505A436.511583 436.511583 0 0 0 74.678004 475.428989h182.269917c3.510817-58.513617 17.554085-115.930104 41.837236-172.176318a587.549857 587.549857 0 0 1-142.773226-47.981166z m49.590291-57.489628c37.156147 16.456955 79.724803 29.110524 127.779111 37.741283 32.036205-54.27138 74.019725-107.372487 125.731134-159.23018A437.462429 437.462429 0 0 0 205.52908 197.781877z m450.408566 116.295814c-46.079473 5.851362-95.15777 8.703901-147.161746 8.7039a1162.226717 1162.226717 0 0 1-135.239598-7.460486c-25.087713 52.662255-39.496691 106.055931-43.373218 160.107884h363.442703a492.392087 492.392087 0 0 0-37.668141-161.351298z m-36.351584-69.484921a587.403573 587.403573 0 0 0-103.422818-122.000891A781.888207 781.888207 0 0 0 413.25242 245.836185c30.207655 2.486829 62.024434 3.803385 95.669764 3.803385a1155.643935 1155.643935 0 0 0 110.810162-5.119942z m249.926286 12.946138c-42.422372 18.870641-88.940698 33.64533-139.628118 44.250923 21.138044 54.63709 33.499046 112.638713 37.009863 173.639158h182.343059a436.438441 436.438441 0 0 0-79.724804-217.890081z m-49.809716-58.367333a437.608713 437.608713 0 0 0-244.367493-121.415755 639.114982 639.114982 0 0 1 122.65917 155.792505 657.400487 657.400487 0 0 0 121.708323-34.37675zM1.316556 475.428989a511.994149 511.994149 0 1 1 0 73.142022H0v-73.142022h1.316556z" fill="#2c2c2c" p-id="1447"></path></svg>